<?xml version="1.0" standalone="no"?>
<!DOCTYPE svg PUBLIC "-//W3C//DTD SVG 20010904//EN"
 "http://www.w3.org/TR/2001/REC-SVG-20010904/DTD/svg10.dtd">
<svg version="1.0" xmlns="http://www.w3.org/2000/svg"
 width="260.000000pt" height="260.000000pt" viewBox="0 0 260.000000 260.000000"
 preserveAspectRatio="xMidYMid meet">
<metadata>
Created by potrace 1.11, written by Peter Selinger 2001-2013
</metadata>
<g transform="translate(0.000000,260.000000) scale(0.100000,-0.100000)"
fill="#000000" stroke="none">
<path d="M675 1620 l-320 -320 320 -320 c176 -176 323 -320 327 -320 4 0 7
288 8 640 0 352 -3 640 -8 640 -4 0 -151 -144 -327 -320z m136 -266 c0 -54 0
-125 0 -157 l-1 -58 -79 81 -79 81 76 78 c43 43 78 77 80 76 1 -1 3 -46 3
-101z"/>
<path d="M1295 1750 l-190 -190 0 -145 -1 -145 40 38 c21 20 65 64 97 97 l59
60 0 -310 0 -310 93 -93 c51 -50 95 -92 97 -92 3 0 5 288 5 640 0 352 -2 640
-5 640 -3 0 -91 -85 -195 -190z"/>
<path d="M1782 1748 l-192 -191 0 -146 0 -145 61 59 c34 33 75 75 92 93 16 17
33 32 38 32 4 0 8 -135 7 -300 -1 -165 0 -302 3 -305 47 -53 183 -184 187
-180 6 6 6 1264 0 1270 -2 3 -91 -81 -196 -187z"/>
</g>
</svg>
